<svg width="61" height="47" viewBox="0 0 61 47" fill="none" xmlns="http://www.w3.org/2000/svg">
<path d="M15.8586 46.4626C12.9146 46.4626 10.2693 45.9506 7.92262 44.9266C5.61862 43.8599 3.80529 42.4092 2.48262 40.5746C1.15995 38.6972 0.477288 36.5426 0.434621 34.1106H6.64262C6.85596 36.2012 7.70929 37.9719 9.20262 39.4226C10.7386 40.8306 12.9573 41.5346 15.8586 41.5346C18.632 41.5346 20.808 40.8519 22.3866 39.4866C24.008 38.0786 24.8186 36.2866 24.8186 34.1106C24.8186 32.4039 24.3493 31.0172 23.4106 29.9506C22.472 28.8839 21.2986 28.0732 19.8906 27.5186C18.4826 26.9639 16.584 26.3666 14.1946 25.7266C11.2506 24.9586 8.88262 24.1906 7.09062 23.4226C5.34129 22.6546 3.82662 21.4599 2.54662 19.8386C1.30929 18.1746 0.690621 15.9559 0.690621 13.1826C0.690621 10.7506 1.30929 8.5959 2.54662 6.71857C3.78395 4.84124 5.51195 3.39057 7.73062 2.36657C9.99195 1.34257 12.5733 0.83057 15.4746 0.83057C19.656 0.83057 23.0693 1.8759 25.7146 3.96657C28.4026 6.05724 29.9173 8.83057 30.2586 12.2866H23.8586C23.6453 10.5799 22.7493 9.08657 21.1706 7.80657C19.592 6.4839 17.5013 5.82257 14.8986 5.82257C12.4666 5.82257 10.4826 6.46257 8.94662 7.74257C7.41062 8.9799 6.64262 10.7292 6.64262 12.9906C6.64262 14.6119 7.09062 15.9346 7.98662 16.9586C8.92529 17.9826 10.056 18.7719 11.3786 19.3266C12.744 19.8386 14.6426 20.4359 17.0746 21.1186C20.0186 21.9292 22.3866 22.7399 24.1786 23.5506C25.9706 24.3186 27.5066 25.5346 28.7866 27.1986C30.0666 28.8199 30.7066 31.0386 30.7066 33.8546C30.7066 36.0306 30.1306 38.0786 28.9786 39.9986C27.8266 41.9186 26.12 43.4759 23.8586 44.6706C21.5973 45.8652 18.9306 46.4626 15.8586 46.4626ZM45.1011 41.2786H60.7171V46.0146H39.2771V1.40657H45.1011V41.2786Z" fill="url(#paint0_linear_325_2)"/>
<defs>
<linearGradient id="paint0_linear_325_2" x1="-3.21338" y1="24.0146" x2="62.7866" y2="24.0146" gradientUnits="userSpaceOnUse">
<stop offset="0.291667" stop-color="#06B6D4"/>
<stop offset="1" stop-color="#3B82F6"/>
</linearGradient>
</defs>
</svg>
